<svg xmlns="http://www.w3.org/2000/svg" fill="none" viewBox="0 0 1080 1080"><path fill="#000" d="M482.296 942.411c-12.087 1.684-24.898 2.727-38.544 3.546l-71.794 4.035c-180.093 9.03-255.393-59.034-264.84-239.241l-9.253-179.26c-9.03-180.097 58.729-255.926 238.824-264.956l70.011-4.065c-13.304 17.917-26.139 39.094-39.339 63.305l-87.802 163.996c-98.631 184.366-60.494 310.947 123.647 410.413l65.676 35.5c4.258 2.483 9.045 4.661 13.414 6.727Z"/><path fill="url(#a)" d="m823.136 275-65.37-34.97c-130.629-70.358-220.997-65.481-296.93 22.479-19.352 22.115-37.653 50.33-55.515 83.585L317.52 510.088c-87.69 163.578-56.873 264.03 106.176 352.026l65.676 35.5c22.652 12.335 44.194 22.135 64.625 29.399 126.924 47.436 212.576 5.044 288.042-136.299l87.69-163.577C1017.42 463.56 987.131 362.802 823.136 275Z"/><rect width="53" height="185" x="457" y="582" fill="#fff" rx="20"/><rect width="53" height="310" x="570" y="457" fill="#fff" rx="20"/><rect width="53" height="399" x="683" y="368" fill="#fff" rx="20"/><defs><linearGradient id="a" x1="718.34" x2="528.953" y1="215.21" y2="922.009" gradientUnits="userSpaceOnUse"><stop stop-color="#00C6FF"/><stop offset="1" stop-color="#0072FF"/></linearGradient></defs></svg>